<svg xmlns="http://www.w3.org/2000/svg" xmlns:xlink="http://www.w3.org/1999/xlink" version="1.1" x="0px" y="0px" viewBox="0 0 128 160" enable-background="new 0 0 128 128" xml:space="preserve"><path fill="#000000" d="M1,99.2L28.8,127l63.5-63.5l-5.9-5.9l4.5-4.5l5.9,5.9L127,28.8L99.2,1L1,99.2z M30.7,115.7c1,1,1,2.6,0,3.6  s-2.6,1-3.6,0l-1-1c-1-1-1-2.6,0-3.6s2.6-1,3.6,0L30.7,115.7z M15.9,96.6l10.8-10.8l10.8,10.8l-10.8,10.8L15.9,96.6z M37.5,108.9  c1,1,1,2.6,0,3.6c-1,1-2.6,1-3.6,0l-1-1c-1-1-1-2.6,0-3.6c1-1,2.6-1,3.6,0L37.5,108.9z M44.2,102.2c1,1,1,2.6,0,3.6  c-1,1-2.6,1-3.6,0l-1-1c-1-1-1-2.6,0-3.6c1-1,2.6-1,3.6,0L44.2,102.2z M50.9,95.4c1,1,1,2.6,0,3.6c-1,1-2.6,1-3.6,0l-1-1  c-1-1-1-2.6,0-3.6c1-1,2.6-1,3.6,0L50.9,95.4z M57.7,88.7c1,1,1,2.6,0,3.6c-1,1-2.6,1-3.6,0l-1-1c-1-1-1-2.6,0-3.6c1-1,2.6-1,3.6,0  L57.7,88.7z M64.4,82c1,1,1,2.6,0,3.6c-1,1-2.6,1-3.6,0l-1-1c-1-1-1-2.6,0-3.6c1-1,2.6-1,3.6,0L64.4,82z M60.8,73.3L50,84.1  L39.2,73.3L50,62.5L60.8,73.3z M71.2,75.2c1,1,1,2.6,0,3.6c-1,1-2.6,1-3.6,0l-1-1c-1-1-1-2.6,0-3.6c1-1,2.6-1,3.6,0L71.2,75.2z   M77.9,68.5c1,1,1,2.6,0,3.6c-1,1-2.6,1-3.6,0l-1-1c-1-1-1-2.6,0-3.6c1-1,2.6-1,3.6,0L77.9,68.5z M84.7,61.7c1,1,1,2.6,0,3.6  c-1,1-2.6,1-3.6,0l-1-1c-1-1-1-2.6,0-3.6c1-1,2.6-1,3.6,0L84.7,61.7z M84.1,50L73.3,60.8L62.5,50l10.8-10.8L84.1,50z M98.6,47.7  c1,1,1,2.6,0,3.6c-1,1-2.6,1-3.6,0l-1-1c-1-1-1-2.6,0-3.6c1-1,2.6-1,3.6,0L98.6,47.7z M105.4,41c1,1,1,2.6,0,3.6c-1,1-2.6,1-3.6,0  l-1-1c-1-1-1-2.6,0-3.6c1-1,2.6-1,3.6,0L105.4,41z M112.1,34.3c1,1,1,2.6,0,3.6c-1,1-2.6,1-3.6,0l-1-1c-1-1-1-2.6,0-3.6  c1-1,2.6-1,3.6,0L112.1,34.3z M107.4,26.7L96.6,37.5L85.8,26.7l10.8-10.8L107.4,26.7z M118.9,27.5c1,1,1,2.6,0,3.6c-1,1-2.6,1-3.6,0  l-1-1c-1-1-1-2.6,0-3.6c1-1,2.6-1,3.6,0L118.9,27.5z"/><text x="0" y="143" fill="#000000" font-size="5px" font-weight="bold" font-family="'Helvetica Neue', Helvetica, Arial-Unicode, Arial, Sans-serif"></text><text x="0" y="148" fill="#000000" font-size="5px" font-weight="bold" font-family="'Helvetica Neue', Helvetica, Arial-Unicode, Arial, Sans-serif"></text></svg>