<svg xmlns="http://www.w3.org/2000/svg" xmlns:xlink="http://www.w3.org/1999/xlink" version="1.1" x="0px" y="0px" viewBox="0 0 512 640" enable-background="new 0 0 512 512" xml:space="preserve"><g><path d="M495.9,125.1H16.1c-7.8,0-14.1,6.3-14.1,14.1v162.2c0,7.8,6.3,14.1,14.1,14.1h11.1v57.2c0,7.8,6.3,14.1,14.1,14.1h177.8   c4.3,0,8.4-2,11.1-5.4c6.3-8,15.7-12.6,25.8-12.6c10.1,0,19.5,4.6,25.8,12.6c2.7,3.4,6.8,5.4,11.1,5.4h177.8   c7.8,0,14.1-6.3,14.1-14.1v-57.2h11.1c7.8,0,14.1-6.3,14.1-14.1V139.3C510,131.5,503.7,125.1,495.9,125.1z M30.2,153.4h451.6v133.9   H30.2V153.4z M456.6,358.6H299.3c-11.4-11.5-26.8-18-43.3-18s-31.8,6.5-43.3,18H55.4v-43.1h401.2V358.6z"/><path d="M93.5,258.8c7.8,0,14.1-6.3,14.1-14.1V196c0-7.8-6.3-14.1-14.1-14.1s-14.1,6.3-14.1,14.1v48.6   C79.4,252.4,85.7,258.8,93.5,258.8z"/><path d="M174.7,258.8c7.8,0,14.1-6.3,14.1-14.1V196c0-7.8-6.3-14.1-14.1-14.1c-7.8,0-14.1,6.3-14.1,14.1v48.6   C160.6,252.4,166.9,258.8,174.7,258.8z"/><path d="M256,258.8c7.8,0,14.1-6.3,14.1-14.1V196c0-7.8-6.3-14.1-14.1-14.1c-7.8,0-14.1,6.3-14.1,14.1v48.6   C241.9,252.4,248.2,258.8,256,258.8z"/><path d="M337.3,258.8c7.8,0,14.1-6.3,14.1-14.1V196c0-7.8-6.3-14.1-14.1-14.1s-14.1,6.3-14.1,14.1v48.6   C323.2,252.4,329.5,258.8,337.3,258.8z"/><path d="M418.5,258.8c7.8,0,14.1-6.3,14.1-14.1V196c0-7.8-6.3-14.1-14.1-14.1c-7.8,0-14.1,6.3-14.1,14.1v48.6   C404.4,252.4,410.7,258.8,418.5,258.8z"/></g><text x="0" y="527" fill="#000000" font-size="5px" font-weight="bold" font-family="'Helvetica Neue', Helvetica, Arial-Unicode, Arial, Sans-serif"></text><text x="0" y="532" fill="#000000" font-size="5px" font-weight="bold" font-family="'Helvetica Neue', Helvetica, Arial-Unicode, Arial, Sans-serif"></text></svg>