<?xml version="1.0" encoding="iso-8859-1"?>
<!-- Generator: Adobe Illustrator 19.0.0, SVG Export Plug-In . SVG Version: 6.00 Build 0)  -->
<svg version="1.1" id="Layer_1" xmlns="http://www.w3.org/2000/svg" xmlns:xlink="http://www.w3.org/1999/xlink" x="0px" y="0px"
	 viewBox="0 0 460 460" style="enable-background:new 0 0 460 460;" xml:space="preserve">
<g id="XMLID_813_">
	<polygon id="XMLID_814_" style="fill:#6B81A1;" points="30,40 0,40 0,430 190,430 215,450 230,450 230,400 	"/>
	<path id="XMLID_815_" style="fill:#A3B1C4;" d="M30,370v30h170c16.569,0,30,13.431,30,30l10-15l-10-15v-40L30,370z"/>
	<path id="XMLID_816_" style="fill:#BEC8D6;" d="M30,340v30h170c16.569,0,30,13.431,30,30l10-15l-10-15v-40L30,340z"/>
	<polygon id="XMLID_817_" style="fill:#354A67;" points="430,40 230,400 230,430 230,450 245,450 270,430 460,430 460,40 	"/>
	<path id="XMLID_818_" style="fill:#6B81A1;" d="M430,370v30H260c-16.569,0-30,13.431-30,30v-70L430,370z"/>
	<polygon id="XMLID_819_" style="fill:#FA6121;" points="340,450 370,430 400,450 400,360 340,360 	"/>
	<path id="XMLID_820_" style="fill:#A3B1C4;" d="M430,340v30H260c-16.569,0-30,13.431-30,30v-70L430,340z"/>
	<path id="XMLID_821_" style="fill:#DAE0E7;" d="M200,10c16.569,0,30,13.432,30,30l10,165l-10,165c0-16.569-13.431-30-30-30H30V10
		H200z"/>
	<path id="XMLID_822_" style="fill:#A3B1C4;" d="M60,40v270h140V40H60z M170,280H90v-30h80V280z M170,220H90v-30h80V220z M170,160
		H90v-30h80V160z M170,100H90V70h80V100z"/>
	<path id="XMLID_828_" style="fill:#BEC8D6;" d="M260,10c-16.569,0-30,13.432-30,30v330c0-16.569,13.431-30,30-30h170V10H260z"/>
	<path id="XMLID_829_" style="fill:#8799B3;" d="M260,40v270h140V40H260z M370,280h-80v-30h80V280z M370,220h-80v-30h80V220z
		 M370,160h-80v-30h80V160z M370,100h-80V70h80V100z"/>
</g>
<g>
</g>
<g>
</g>
<g>
</g>
<g>
</g>
<g>
</g>
<g>
</g>
<g>
</g>
<g>
</g>
<g>
</g>
<g>
</g>
<g>
</g>
<g>
</g>
<g>
</g>
<g>
</g>
<g>
</g>
</svg>
