<?xml version="1.0" encoding="iso-8859-1"?>
<!-- Generator: Adobe Illustrator 19.0.0, SVG Export Plug-In . SVG Version: 6.00 Build 0)  -->
<svg version="1.1" id="Layer_1" xmlns="http://www.w3.org/2000/svg" xmlns:xlink="http://www.w3.org/1999/xlink" x="0px" y="0px"
	 viewBox="0 0 512 512" style="enable-background:new 0 0 512 512;" xml:space="preserve">
<path style="fill:#484848;" d="M152.705,503.453l18.062-38.251c0.377-0.8,0.573-1.673,0.573-2.558v-84.235h169.321v84.235
	c0,0.884,0.196,1.758,0.573,2.558l18.062,38.251c1.876,3.973-1.023,8.547-5.417,8.547H158.121
	C153.726,512,150.827,507.426,152.705,503.453z"/>
<path style="fill:#333333;" d="M340.66,378.409H220.708h-49.369v44.328v39.906c0,0.884-0.196,1.758-0.573,2.557l-18.062,38.249
	c-1.876,3.973,1.023,8.547,5.417,8.547h49.369c-4.394,0-7.293-4.574-5.417-8.547l18.062-38.249c0.377-0.8,0.573-1.673,0.573-2.558
	v-26.311c0-7.508,6.086-13.594,13.594-13.594H340.66L340.66,378.409L340.66,378.409z"/>
<path style="fill:#5D5D5D;" d="M37.421,405.6c-10.177,0-18.456-8.279-18.456-18.456V277.921h474.07v109.224
	c0,10.177-8.279,18.456-18.456,18.456H37.421z"/>
<path style="fill:#ECB45D;" d="M256,381.956c-13.364,0-24.235-10.872-24.235-24.236c0-13.364,10.872-24.235,24.235-24.235
	c13.364,0,24.235,10.872,24.235,24.235C280.236,371.084,269.364,381.956,256,381.956z"/>
<path style="fill:#ACC5E1;" d="M18.965,311.023V91.852c0-10.177,8.279-18.456,18.456-18.456h437.159
	c10.177,0,18.456,8.279,18.456,18.456v219.17H18.965z"/>
<path style="fill:#484848;" d="M68.335,387.145V277.921H18.965v109.224c0,10.177,8.279,18.456,18.456,18.456H86.79
	C76.614,405.6,68.335,397.321,68.335,387.145z"/>
<path style="fill:#93B7DB;" d="M86.79,73.397H37.421c-10.177,0-18.456,8.279-18.456,18.456v219.17h49.369V91.852
	C68.335,81.676,76.614,73.397,86.79,73.397z"/>
<path style="fill:#C5DBEF;" d="M48.521,274.305V110.114c0-3.956,3.206-7.162,7.162-7.162h400.634c3.956,0,7.162,3.206,7.162,7.162
	v164.19c0,3.956-3.206,7.162-7.162,7.162H55.683C51.727,281.467,48.521,278.261,48.521,274.305z"/>
<path style="fill:#BED9ED;" d="M461.167,279.565C295.12,230.271,151.166,174.52,61.33,102.952h-5.647
	c-3.956,0-7.162,3.206-7.162,7.162v164.19c0,3.956,3.206,7.162,7.162,7.162h400.634C458.19,281.467,459.89,280.743,461.167,279.565z
	"/>
<path style="fill:#CD5838;" d="M315.816,275.556c-5.359,0-9.718-4.36-9.718-9.718v-7.833c0-3.462-2.038-6.542-5.192-7.85
	c-5.493-2.276-10.675-5.274-15.405-8.912c-1.488-1.143-3.262-1.749-5.127-1.749c-1.491,0-2.974,0.402-4.29,1.161l-6.799,3.926
	c-1.491,0.856-3.164,1.303-4.858,1.303c-3.427,0-6.637-1.835-8.377-4.789L245.34,222.55l7.42-4.91
	c2.031-1.345,3.989-2.738,5.814-4.142c2.461-1.893,5.536-2.937,8.655-2.937c2.519,0,5.011,0.669,7.209,1.936l10.272,5.931
	c1.988,1.149,4.248,1.754,6.532,1.754c1.922,0,3.867-0.428,5.623-1.241l4.744-2.193l4.382,2.85
	c6.217,4.046,13.458,6.183,20.939,6.183c21.253,0,38.543-17.29,38.543-38.544c0-21.253-17.29-38.543-38.543-38.543
	c-5.539,0-10.867,1.141-15.838,3.392l-14.827,6.713l1.51-16.206c0.298-3.201,0.449-6.396,0.449-9.497
	c0-4.405-0.292-8.855-0.867-13.229c-0.754-5.73,2.022-11.317,7.071-14.233l11.626-6.714h21.994c5.359,0,9.718,4.36,9.718,9.719
	v7.832c0,3.463,2.037,6.542,5.19,7.849c5.487,2.275,10.67,5.272,15.405,8.91c1.491,1.147,3.264,1.751,5.128,1.751
	c1.49,0,2.973-0.402,4.288-1.16l6.786-3.917c1.48-0.861,3.161-1.313,4.867-1.313h1.214l1.393,0.356
	c2.454,0.681,4.513,2.267,5.795,4.466l11.14,19.294c2.674,4.658,1.072,10.606-3.561,13.277l-6.793,3.921
	c-2.999,1.731-4.646,5.047-4.199,8.446c0.387,2.938,0.583,5.928,0.583,8.886c0,2.969-0.195,5.961-0.579,8.894
	c-0.445,3.397,1.205,6.709,4.2,8.44l6.793,3.92c4.63,2.671,6.231,8.617,3.568,13.256l-11.128,19.276
	c-1.74,3.002-4.962,4.859-8.416,4.859c-1.695,0-3.368-0.446-4.838-1.29l-6.819-3.938c-1.316-0.76-2.799-1.161-4.29-1.161
	c-1.863,0-3.635,0.605-5.124,1.749c-4.732,3.638-9.918,6.635-15.413,8.909c-3.153,1.305-5.191,4.388-5.191,7.85v7.835
	c0,5.358-4.36,9.718-9.718,9.718H315.816L315.816,275.556z"/>
<path style="fill:#B72C11;" d="M392.559,129.12c0.557,0.33,1.138,0.597,1.747,0.789C393.756,129.59,393.172,129.326,392.559,129.12z
	"/>
<path style="fill:#ECB45D;" d="M321.988,174.196c-0.994-3.71-3.373-6.81-6.698-8.731l-10.262-5.924
	c-4.631-2.674-7.178-7.796-6.492-13.047c0.579-4.42,0.872-8.927,0.872-13.396c0-4.458-0.296-8.961-0.877-13.383
	c-0.692-5.255,1.855-10.379,6.49-13.055l10.476-6.052l0.705-0.634l1.142-0.619l0.988-1.003c1.754-1.78,3.018-3.975,3.655-6.351
	c0.993-3.709,0.484-7.582-1.436-10.91l-16.792-29.085c-2.559-4.433-7.333-7.188-12.461-7.188c-2.511,0-4.99,0.663-7.181,1.925
	l-10.273,5.931c-2.03,1.172-4.322,1.792-6.628,1.792c-2.887,0-5.63-0.935-7.93-2.704c-7.126-5.478-14.933-9.993-23.201-13.421
	c-4.877-2.02-8.028-6.784-8.028-12.135V14.377C228.058,6.449,221.609,0,213.681,0h-33.584c-7.928,0-14.377,6.449-14.377,14.377
	v11.83c0,5.352-3.153,10.116-8.031,12.137c-8.268,3.424-16.076,7.939-23.207,13.419c-2.299,1.767-5.04,2.701-7.926,2.701
	c-2.307,0-4.6-0.619-6.63-1.791l-10.273-5.934c-2.181-1.257-4.661-1.92-7.175-1.92c-5.125,0-9.9,2.753-12.459,7.187L73.224,81.094
	c-1.919,3.326-2.428,7.2-1.435,10.908c0.994,3.71,3.373,6.81,6.698,8.731l10.262,5.924c4.631,2.674,7.178,7.796,6.492,13.047
	c-0.579,4.42-0.872,8.927-0.872,13.396c0,4.461,0.296,8.964,0.877,13.382c0.692,5.256-1.855,10.38-6.492,13.056l-10.265,5.929
	c-3.327,1.92-5.707,5.02-6.701,8.731c-0.993,3.709-0.484,7.582,1.436,10.91l16.791,29.084c2.56,4.436,7.334,7.191,12.461,7.191
	c2.516,0,5-0.666,7.182-1.927l10.272-5.931c2.03-1.172,4.322-1.792,6.629-1.792c2.887,0,5.63,0.935,7.93,2.704
	c7.126,5.478,14.933,9.993,23.201,13.421c4.877,2.02,8.028,6.784,8.028,12.135v11.832c0,7.928,6.45,14.377,14.377,14.377h33.584
	c7.928,0,14.377-6.449,14.377-14.377v-11.834c0-5.352,3.152-10.116,8.031-12.137c8.274-3.426,16.082-7.941,23.205-13.415
	c2.302-1.767,5.043-2.701,7.93-2.701c2.307,0,4.599,0.618,6.628,1.79l10.275,5.934c2.18,1.257,4.66,1.92,7.174,1.92
	c5.126,0,9.901-2.755,12.459-7.187l16.793-29.087C322.473,181.778,322.982,177.904,321.988,174.196z M196.889,192.801
	c-32.92,0-59.702-26.782-59.702-59.702s26.782-59.702,59.702-59.702s59.702,26.782,59.702,59.702S229.809,192.801,196.889,192.801z"
	/>
<g>
</g>
<g>
</g>
<g>
</g>
<g>
</g>
<g>
</g>
<g>
</g>
<g>
</g>
<g>
</g>
<g>
</g>
<g>
</g>
<g>
</g>
<g>
</g>
<g>
</g>
<g>
</g>
<g>
</g>
</svg>
