<svg xmlns="http://www.w3.org/2000/svg" xmlns:xlink="http://www.w3.org/1999/xlink" version="1.1" x="0px" y="0px" viewBox="0 0 100 125" enable-background="new 0 0 100 100" xml:space="preserve"><path d="M74.79,56.729H57.598c-0.552,0-0.997-0.447-0.997-0.998V39.314c0-0.551,0.445-0.999,0.997-0.999H74.79  c0.551,0,0.999,0.448,0.999,0.999V55.73C75.789,56.281,75.341,56.729,74.79,56.729z M58.596,54.732h15.196v-14.42H58.596V54.732z"/><path d="M69.754,56.396h-7.12c-0.171,0-0.335-0.065-0.46-0.183l-5.035-4.793c-0.132-0.125-0.207-0.3-0.207-0.481v-6.779  c0-0.183,0.075-0.355,0.207-0.482l5.035-4.793c0.125-0.118,0.289-0.183,0.46-0.183h7.12c0.171,0,0.335,0.064,0.46,0.183l5.035,4.793  c0.132,0.127,0.206,0.3,0.206,0.482v6.779c0,0.182-0.074,0.355-0.206,0.481l-5.035,4.793C70.089,56.33,69.925,56.396,69.754,56.396z   M62.899,55.064h6.588l4.638-4.413v-6.206l-4.638-4.413h-6.588l-4.637,4.413v6.206L62.899,55.064z"/><g><rect x="62.146" y="43.751" width="8.096" height="7.543"/><path d="M70.241,51.959h-8.096c-0.367,0-0.665-0.297-0.665-0.665v-7.543c0-0.367,0.298-0.665,0.665-0.665h8.096   c0.369,0,0.668,0.298,0.668,0.665v7.543C70.909,51.662,70.61,51.959,70.241,51.959z M62.811,50.628h6.767v-6.211h-6.767V50.628z"/></g><rect x="69.617" y="43.782" width="2.074" height="0.602"/><rect x="69.617" y="44.78" width="2.074" height="0.601"/><rect x="69.617" y="45.779" width="2.074" height="0.601"/><rect x="69.617" y="46.777" width="2.074" height="0.601"/><rect x="69.617" y="47.776" width="2.074" height="0.601"/><rect x="69.617" y="48.772" width="2.074" height="0.602"/><rect x="69.617" y="49.771" width="2.074" height="0.601"/><rect x="69.617" y="50.77" width="2.074" height="0.601"/><rect x="69.388" y="50.658" width="0.601" height="2.072"/><rect x="68.389" y="50.658" width="0.602" height="2.072"/><rect x="67.392" y="50.658" width="0.601" height="2.072"/><rect x="66.393" y="50.658" width="0.601" height="2.072"/><rect x="65.395" y="50.658" width="0.601" height="2.072"/><rect x="64.396" y="50.658" width="0.601" height="2.072"/><rect x="63.397" y="50.658" width="0.602" height="2.072"/><rect x="62.401" y="50.658" width="0.599" height="2.072"/><rect x="69.664" y="42.38" width="0.602" height="2.073"/><rect x="68.667" y="42.38" width="0.601" height="2.073"/><rect x="67.668" y="42.38" width="0.601" height="2.073"/><rect x="66.67" y="42.38" width="0.601" height="2.073"/><rect x="65.671" y="42.38" width="0.601" height="2.073"/><rect x="64.673" y="42.38" width="0.602" height="2.073"/><rect x="63.675" y="42.38" width="0.601" height="2.073"/><rect x="62.677" y="42.38" width="0.601" height="2.073"/><rect x="60.626" y="43.728" width="2.074" height="0.601"/><rect x="60.626" y="44.727" width="2.074" height="0.601"/><rect x="60.626" y="45.725" width="2.074" height="0.601"/><rect x="60.626" y="46.724" width="2.074" height="0.601"/><rect x="60.626" y="47.72" width="2.074" height="0.602"/><rect x="60.626" y="48.719" width="2.074" height="0.601"/><rect x="60.626" y="49.717" width="2.074" height="0.601"/><rect x="60.626" y="50.716" width="2.074" height="0.601"/><path d="M29.179,64.215h-5.823c-0.552,0-0.998-0.447-0.998-0.997V41.681c0-0.55,0.446-0.998,0.998-0.998h5.823  c0.551,0,0.997,0.448,0.997,0.998v21.537C30.176,63.768,29.729,64.215,29.179,64.215z M24.354,62.219h3.827V42.68h-3.827V62.219z"/><path d="M39.327,64.215h-5.824c-0.551,0-0.996-0.447-0.996-0.997V41.681c0-0.55,0.445-0.998,0.996-0.998h5.824  c0.552,0,0.997,0.448,0.997,0.998v21.537C40.324,63.768,39.879,64.215,39.327,64.215z M34.502,62.219h3.827V42.68h-3.827V62.219z"/><path d="M29.179,30.368H17.451c-0.551,0-0.998-0.448-0.998-0.999V27.63H9.649c-0.55,0-0.998-0.446-0.998-0.998v-4.175  c0-0.551,0.448-0.998,0.998-0.998h6.804v-1.738c0-0.552,0.447-0.999,0.998-0.999h11.728c0.551,0,0.997,0.447,0.997,0.999v9.648  C30.176,29.92,29.729,30.368,29.179,30.368z M18.449,28.371h9.731v-7.653h-9.731v1.739c0,0.551-0.447,0.998-0.998,0.998  l-6.803,0.001v2.178h6.803c0.551,0,0.998,0.447,0.998,0.998V28.371z"/><path d="M66.752,21.217h-7.126c-0.552,0-0.999-0.447-0.999-0.998v-8.651c0-0.551,0.447-0.998,0.999-0.998h7.126  c0.55,0,0.997,0.447,0.997,0.998v8.651C67.749,20.77,67.302,21.217,66.752,21.217z M60.623,19.22h5.13v-6.654h-5.13V19.22z"/><path d="M76.952,21.217h-7.125c-0.551,0-0.998-0.447-0.998-0.998v-8.651c0-0.551,0.447-0.998,0.998-0.998h7.125  c0.553,0,0.999,0.447,0.999,0.998v8.651C77.951,20.77,77.505,21.217,76.952,21.217z M70.826,19.22h5.128v-6.654h-5.128V19.22z"/><path d="M73.671,37.164c-1.835,0-3.327-1.492-3.327-3.328c0-1.835,1.492-3.327,3.327-3.327c1.834,0,3.327,1.492,3.327,3.327  C76.998,35.672,75.505,37.164,73.671,37.164z M73.671,31.84c-1.102,0-1.997,0.895-1.997,1.996c0,1.101,0.896,1.997,1.997,1.997  c1.1,0,1.995-0.896,1.995-1.997C75.666,32.734,74.771,31.84,73.671,31.84z"/><path d="M59.002,37.164c-1.835,0-3.328-1.492-3.328-3.328c0-1.835,1.493-3.327,3.328-3.327c1.834,0,3.328,1.492,3.328,3.327  C62.33,35.672,60.836,37.164,59.002,37.164z M59.002,31.84c-1.101,0-1.997,0.895-1.997,1.996c0,1.101,0.896,1.997,1.997,1.997  s1.996-0.896,1.996-1.997C60.998,32.734,60.103,31.84,59.002,31.84z"/><path d="M66.431,37.164c-1.836,0-3.328-1.492-3.328-3.328c0-1.835,1.492-3.327,3.328-3.327c1.834,0,3.326,1.492,3.326,3.327  C69.757,35.672,68.265,37.164,66.431,37.164z M66.431,31.84c-1.103,0-1.997,0.895-1.997,1.996c0,1.101,0.895,1.997,1.997,1.997  c1.101,0,1.997-0.896,1.997-1.997C68.428,32.734,67.531,31.84,66.431,31.84z"/><path d="M44.255,26.802c-1.834,0-3.327-1.492-3.327-3.328c0-1.834,1.493-3.326,3.327-3.326c1.835,0,3.328,1.492,3.328,3.326  C47.583,25.31,46.09,26.802,44.255,26.802z M44.255,21.477c-1.101,0-1.997,0.896-1.997,1.997c0,1.103,0.896,1.997,1.997,1.997  c1.102,0,1.997-0.895,1.997-1.997C46.252,22.373,45.356,21.477,44.255,21.477z"/><path d="M24.858,79.032c-1.834,0-3.327-1.493-3.327-3.326c0-1.836,1.493-3.328,3.327-3.328c1.836,0,3.327,1.492,3.327,3.328  C28.186,77.539,26.694,79.032,24.858,79.032z M24.858,73.709c-1.101,0-1.995,0.895-1.995,1.997c0,1.1,0.895,1.994,1.995,1.994  c1.102,0,1.997-0.895,1.997-1.994C26.855,74.604,25.96,73.709,24.858,73.709z"/><g><path d="M62.823,82.488c-0.879,0-1.599-0.719-1.599-1.599v-3.928c0-0.879,0.719-1.599,1.599-1.599h9.281   c0.879,0,1.599,0.719,1.599,1.599v3.928c0,0.879-0.719,1.599-1.599,1.599H62.823z"/></g><rect x="70.656" y="81.452" width="0.601" height="2.071"/><rect x="69.658" y="81.452" width="0.602" height="2.071"/><rect x="68.66" y="81.452" width="0.601" height="2.071"/><rect x="67.662" y="81.452" width="0.601" height="2.071"/><rect x="66.663" y="81.452" width="0.601" height="2.071"/><rect x="65.665" y="81.452" width="0.601" height="2.071"/><rect x="64.666" y="81.452" width="0.602" height="2.071"/><rect x="63.67" y="81.452" width="0.601" height="2.071"/><path d="M26.268,38.786c-1.836,0-3.328-1.492-3.328-3.327c0-1.836,1.492-3.328,3.328-3.328c1.834,0,3.327,1.492,3.327,3.328  C29.595,37.294,28.102,38.786,26.268,38.786z M26.268,33.462c-1.103,0-1.997,0.895-1.997,1.997c0,1.102,0.895,1.997,1.997,1.997  c1.1,0,1.996-0.896,1.996-1.997C28.264,34.356,27.367,33.462,26.268,33.462z"/><path d="M73.932,25.953H46.39v-1.486h26.802l0.018-5.082l1.487,0.006l-0.021,5.821C74.673,25.622,74.341,25.953,73.932,25.953z"/><path d="M63.74,23.613H46.39v-1.332h16.69l0.022-2.899l1.331,0.011l-0.028,3.561C64.403,23.318,64.105,23.613,63.74,23.613z"/><rect x="29.179" y="23.225" width="12.415" height="1.331"/><path d="M74.337,31.174h-1.332V28.62H29.21v-1.33h44.461c0.367,0,0.666,0.297,0.666,0.666V31.174z"/><rect x="65.765" y="27.956" width="1.331" height="3.218"/><rect x="58.336" y="27.956" width="1.331" height="3.218"/><rect x="58.669" y="36.927" width="0.665" height="2.388"/><rect x="66.097" y="36.499" width="0.667" height="2.815"/><rect x="73.62" y="36.476" width="0.665" height="2.839"/><path d="M22.197,76.371h-2.67c-0.367,0-0.664-0.298-0.664-0.665V29.369h1.33V75.04h2.004V76.371z"/><path d="M67.691,67.554c-1.835,0-3.327-1.494-3.327-3.328c0-1.835,1.492-3.328,3.327-3.328s3.328,1.493,3.328,3.328  C71.02,66.06,69.526,67.554,67.691,67.554z M67.691,62.229c-1.101,0-1.997,0.896-1.997,1.997c0,1.1,0.896,1.996,1.997,1.996  c1.1,0,1.996-0.896,1.996-1.996C69.688,63.124,68.791,62.229,67.691,62.229z"/><rect x="25.601" y="29.564" width="1.332" height="3.231"/><rect x="25.601" y="38.121" width="1.332" height="3.56"/><path d="M35.75,41.685l-0.026-5.561h-6.795v-1.331h7.458c0.366,0,0.663,0.297,0.665,0.662l0.03,6.223L35.75,41.685z"/><path d="M65.029,64.891h-13.09c-0.369,0-0.665-0.298-0.665-0.665v-36.27h1.331V63.56h12.424V64.891z"/><rect x="67.242" y="66.887" width="0.898" height="9.534"/><rect x="28.013" y="75.122" width="2.195" height="1.331"/><g><path d="M82.118,43.773l-0.827-0.01l0.012-1.171H74.79v-0.826h6.932c0.11,0,0.216,0.044,0.295,0.124   c0.077,0.077,0.12,0.184,0.119,0.294L82.118,43.773z"/><g><circle cx="81.706" cy="43.722" r="0.932"/></g></g><g><path d="M79.133,48.927H74.79v-0.666h4.006l-0.01-1.094l0.666-0.006l0.013,1.429c0.001,0.09-0.033,0.176-0.096,0.238   C79.306,48.89,79.221,48.927,79.133,48.927z"/><g><circle cx="79.119" cy="47.202" r="0.751"/></g></g><g><path d="M80.783,54.301l-0.011-1.528H74.79V51.97h6.381c0.221,0,0.399,0.179,0.401,0.398l0.013,1.929L80.783,54.301z"/><g><circle cx="81.185" cy="54.253" r="0.904"/></g></g><g><path d="M71.691,61.018c-0.107,0-0.211-0.044-0.288-0.12c-0.078-0.076-0.122-0.182-0.122-0.29v-4.659h0.821v4.245l2.529-0.029   l0.008,0.82l-2.943,0.033C71.695,61.018,71.693,61.018,71.691,61.018z"/><g><circle cx="74.589" cy="60.575" r="0.924"/></g></g><g><path d="M57.805,59.185l-0.008-0.665l2.785-0.03V55.73h0.665v3.088c0,0.183-0.146,0.33-0.328,0.333L57.805,59.185z"/><g><circle cx="57.838" cy="58.852" r="0.751"/></g></g><g><path d="M70.291,75.911h-0.665v-3.391c0-0.183,0.148-0.332,0.33-0.333l1.949-0.014l0.005,0.665l-1.619,0.012V75.911z"/><g><circle cx="71.87" cy="72.505" r="0.751"/></g></g><g><path d="M65.55,76.061h-0.665v-4.166l-1.08-0.012l0.008-0.665l1.408,0.014c0.183,0.002,0.329,0.15,0.329,0.333V76.061z"/><g><circle cx="63.846" cy="71.55" r="0.751"/></g></g><g><path d="M59.306,81.253l-0.001-2.14c0-0.102,0.041-0.198,0.111-0.269c0.071-0.071,0.167-0.11,0.27-0.11h2.246v0.758h-1.867v1.761   H59.306z"/><g><circle cx="59.685" cy="81.21" r="0.856"/></g></g><rect x="25.934" y="42.38" width="0.666" height="20.838"/><rect x="36.083" y="41.953" width="0.666" height="20.837"/><g><path d="M30.78,66.693V83.33h18.19V66.693H30.78z M39.875,82.227c-4.222,0-7.646-3.26-7.646-7.282c0-4.021,3.424-7.28,7.646-7.28   c4.22,0,7.645,3.259,7.645,7.28C47.52,78.967,44.095,82.227,39.875,82.227z"/><path d="M48.971,84.368H30.78c-0.572,0-1.037-0.466-1.037-1.038V66.693c0-0.574,0.465-1.038,1.037-1.038h18.19   c0.572,0,1.038,0.464,1.038,1.038V83.33C50.009,83.902,49.543,84.368,48.971,84.368z M43.94,82.293h3.993v-4.254   C47.166,79.866,45.742,81.374,43.94,82.293z M31.816,82.293h3.991c-1.798-0.918-3.224-2.425-3.991-4.251V82.293z M39.875,68.701   c-3.645,0-6.608,2.8-6.608,6.243s2.964,6.245,6.608,6.245c3.644,0,6.607-2.802,6.607-6.245S43.519,68.701,39.875,68.701z    M44.193,67.73c1.681,0.928,3.009,2.379,3.74,4.119V67.73H44.193z M31.816,67.73v4.115c0.732-1.739,2.061-3.189,3.741-4.115H31.816   z"/></g><path d="M39.876,81.871c-0.708,0-1.282-0.573-1.282-1.281V69.688c0-0.707,0.574-1.281,1.282-1.281s1.281,0.574,1.281,1.281V80.59  C41.157,81.298,40.584,81.871,39.876,81.871z"/><path d="M45.344,76.433H34.226c-0.715,0-1.294-0.579-1.294-1.293c0-0.716,0.579-1.295,1.294-1.295h11.118  c0.715,0,1.294,0.579,1.294,1.295C46.638,75.854,46.059,76.433,45.344,76.433z"/><path d="M43.729,80.274c-0.327,0-0.655-0.125-0.905-0.376l-7.709-7.709c-0.5-0.499-0.5-1.312,0-1.811  c0.501-0.502,1.312-0.502,1.812,0l7.709,7.708c0.499,0.502,0.499,1.312,0,1.812C44.385,80.149,44.058,80.274,43.729,80.274z"/><path d="M36.038,80.274c-0.327,0-0.656-0.125-0.905-0.376c-0.5-0.5-0.5-1.31,0-1.812l7.709-7.707c0.5-0.502,1.312-0.502,1.812,0  c0.501,0.499,0.501,1.311,0,1.811l-7.709,7.708C36.693,80.149,36.366,80.274,36.038,80.274z"/><path d="M15.702,21.994h-3.327v-6.101c0-0.92,0.744-1.664,1.663-1.664h45.588v3.328H15.702V21.994z"/><path d="M85.911,89.431H14.038c-0.919,0-1.663-0.745-1.663-1.664V26.632h3.327v59.473h68.545V17.558h-7.295v-3.328h8.959  c0.92,0,1.664,0.744,1.664,1.664v71.873C87.575,88.686,86.831,89.431,85.911,89.431z"/><rect x="66.752" y="14.229" width="3.075" height="3.328"/><text x="0" y="115" fill="#000000" font-size="5px" font-weight="bold" font-family="'Helvetica Neue', Helvetica, Arial-Unicode, Arial, Sans-serif"></text><text x="0" y="120" fill="#000000" font-size="5px" font-weight="bold" font-family="'Helvetica Neue', Helvetica, Arial-Unicode, Arial, Sans-serif"></text></svg>