<svg xmlns="http://www.w3.org/2000/svg" xmlns:xlink="http://www.w3.org/1999/xlink" version="1.1" x="0px" y="0px" viewBox="0 0 50 75" enable-background="new 0 0 50 60" xml:space="preserve"><g><path d="M16,8H6C5.45,8,5,8.45,5,9s0.45,1,1,1h10c0.55,0,1-0.45,1-1S16.55,8,16,8z"/><path d="M16,11H6c-0.55,0-1,0.45-1,1s0.45,1,1,1h10c0.55,0,1-0.45,1-1S16.55,11,16,11z"/><path d="M47.8,14H47V9H31v5h-0.8c-1.21,0-2.2,0.99-2.2,2.2v6.61c0,1.21,0.99,2.2,2.2,2.2H31v20.5c0,4.35-2.29,8.38-6,10.65   c-3.59-2.2-6-6.15-6-10.65V16h0.8c1.21,0,2.2-0.99,2.2-2.2V7.2C22,5.99,21.01,5,19.8,5H19V0H3v5H2.2C0.99,5,0,5.99,0,7.2v6.61   C0,15.01,0.99,16,2.2,16H3v29.5C3,53.5,9.5,60,17.5,60h5.71h4H31h0.5h1H33c0.06,0,0.11-0.02,0.17-0.03   C40.85,59.61,47,53.27,47,45.5V25h0.8c1.21,0,2.2-0.99,2.2-2.2V16.2C50,14.99,49.01,14,47.8,14z M33,11h2v1c0,0.55,0.45,1,1,1   s1-0.45,1-1v-1h8v3H33V11z M5,2h2v1c0,0.55,0.45,1,1,1s1-0.45,1-1V2h8v3H5V2z M2.2,14C2.09,14,2,13.91,2,13.8V7.2   C2,7.09,2.09,7,2.2,7H3h16h0.8C19.91,7,20,7.09,20,7.2v6.61c0,0.11-0.09,0.2-0.2,0.2H19H3H2.2z M5,45.5V16h12v29.5   c0,4.84,2.39,9.12,6.04,11.76l-0.06,0.03c-5.21-1.77-8.98-6.7-8.98-12.5V24c0-0.55-0.45-1-1-1s-1,0.45-1,1v20.79   c0,5,2.44,9.44,6.18,12.21C13.38,55.01,10,50.29,10,44.79V24c0-0.55-0.45-1-1-1s-1,0.45-1,1v20.79c0,5.52,2.97,10.35,7.38,13.02   C9.5,56.8,5,51.67,5,45.5z M45,45.5C45,52.39,39.39,58,32.5,58h-1c-0.4,0-0.8-0.02-1.19-0.06c-0.21-0.02-0.42-0.06-0.63-0.09   c-0.17-0.03-0.34-0.05-0.51-0.08c-0.27-0.05-0.53-0.12-0.79-0.18c-0.1-0.03-0.21-0.05-0.31-0.08c-0.29-0.08-0.58-0.18-0.86-0.28   c-0.05-0.02-0.09-0.03-0.14-0.05C30.77,54.45,33,50.13,33,45.5V25h12V45.5z M48,22.8c0,0.11-0.09,0.2-0.2,0.2H47H31h-0.8   c-0.11,0-0.2-0.09-0.2-0.2V16.2c0-0.11,0.09-0.2,0.2-0.2H31h16h0.8c0.11,0,0.2,0.09,0.2,0.2V22.8z"/><path d="M44,17H34c-0.55,0-1,0.45-1,1s0.45,1,1,1h10c0.55,0,1-0.45,1-1S44.55,17,44,17z"/><path d="M44,20H34c-0.55,0-1,0.45-1,1s0.45,1,1,1h10c0.55,0,1-0.45,1-1S44.55,20,44,20z"/><path d="M36.96,54.76c0.19,0.16,0.42,0.24,0.65,0.24c0.28,0,0.56-0.12,0.76-0.35C40.71,51.9,42,48.4,42,44.79V37c0-0.55-0.45-1-1-1   s-1,0.45-1,1v7.79c0,3.14-1.12,6.18-3.15,8.56C36.49,53.77,36.54,54.4,36.96,54.76z"/><path d="M32.96,54.76c0.19,0.16,0.42,0.24,0.65,0.24c0.28,0,0.56-0.12,0.76-0.35C36.71,51.9,38,48.4,38,44.79V37c0-0.55-0.45-1-1-1   s-1,0.45-1,1v7.79c0,3.14-1.12,6.18-3.15,8.56C32.49,53.77,32.54,54.4,32.96,54.76z"/></g><text x="0" y="75" fill="#000000" font-size="5px" font-weight="bold" font-family="'Helvetica Neue', Helvetica, Arial-Unicode, Arial, Sans-serif"></text><text x="0" y="80" fill="#000000" font-size="5px" font-weight="bold" font-family="'Helvetica Neue', Helvetica, Arial-Unicode, Arial, Sans-serif"></text></svg>