<svg xmlns="http://www.w3.org/2000/svg" xmlns:xlink="http://www.w3.org/1999/xlink" version="1.1" x="0px" y="0px" viewBox="0 0 100 125" enable-background="new 0 0 100 100" xml:space="preserve"><path d="M91.538,40.769h-3.461v-9.23c0-2.549-2.066-4.616-4.615-4.616H9.615C7.066,26.923,5,28.99,5,31.539v36.923  c0,2.549,2.066,4.615,4.615,4.615h73.847c2.549,0,4.615-2.066,4.615-4.615V59.23h3.461C93.449,59.23,95,57.68,95,55.77V44.231  C95,42.32,93.449,40.769,91.538,40.769z M81.154,66.154H11.923V33.846h69.231V66.154z"/><polygon points="16.385,38.308 16.385,61.692 39.58,61.692 27.982,38.308 "/><polygon points="31.461,38.308 43.06,61.692 61.615,61.692 50.018,38.308 "/><text x="0" y="115" fill="#000000" font-size="5px" font-weight="bold" font-family="'Helvetica Neue', Helvetica, Arial-Unicode, Arial, Sans-serif"></text><text x="0" y="120" fill="#000000" font-size="5px" font-weight="bold" font-family="'Helvetica Neue', Helvetica, Arial-Unicode, Arial, Sans-serif"></text></svg>