<svg xmlns="http://www.w3.org/2000/svg" xmlns:xlink="http://www.w3.org/1999/xlink" viewBox="0 0 96 83.75" version="1.1" x="0px" y="0px"><title>Wifi</title><desc>Created with Sketch.</desc><g stroke="none" stroke-width="1" fill="none" fill-rule="evenodd"><g fill="#000000"><path d="M54.8160233,60.4396867 C53.0766139,58.6860331 50.6651353,57.6 48,57.6 C45.4143758,57.6 43.0674989,58.6221988 41.3414396,60.2845261 L48.1565625,67.0776919 L54.8160233,60.4396867 L54.8160233,60.4396867 Z"/><path d="M34.5415578,53.5065525 L27.7421511,46.7290523 C32.945266,41.5797646 40.1012961,38.4 48,38.4 C55.9782112,38.4 63.1987221,41.6441009 68.4143757,46.8851459 L61.615203,53.6624129 C58.1376685,50.1650651 53.3216733,48 48,48 C42.7578347,48 38.0063502,50.1008545 34.5415578,53.5065525 L34.5415578,53.5065525 Z"/><path d="M20.9428632,39.9516705 L14.1436227,33.1743361 C22.8231351,24.5377377 34.7882198,19.2 48,19.2 C61.2912872,19.2 73.3208289,24.6021748 82.0127169,33.3306163 L75.2135467,40.1078808 C68.2597755,33.1231377 58.6347492,28.8 48,28.8 C37.4447579,28.8 27.8841975,33.0587383 20.9428632,39.9516705 L20.9428632,39.9516705 Z"/><path d="M7.34440601,26.3970253 L0.545202886,19.619728 C12.7010182,7.49576917 29.4751438,0 48,0 C66.6043632,0 83.4429354,7.56024952 95.6110565,19.7760882 L88.8118868,26.5533522 C78.3818822,16.0812121 63.9478252,9.6 48,9.6 C32.1316818,9.6 17.7620758,16.0167498 7.34440601,26.3970253 L7.34440601,26.3970253 Z"/></g></g><text x="0" y="82" fill="#000000" font-size="5px" font-weight="bold" font-family="'Helvetica Neue', Helvetica, Arial-Unicode, Arial, Sans-serif"></text><text x="0" y="87" fill="#000000" font-size="5px" font-weight="bold" font-family="'Helvetica Neue', Helvetica, Arial-Unicode, Arial, Sans-serif"></text></svg>