<svg xmlns="http://www.w3.org/2000/svg" xmlns:xlink="http://www.w3.org/1999/xlink" version="1.1" x="0px" y="0px" viewBox="0 0 125.3359 156.670875" enable-background="new 0 0 125.3359 125.3367" xml:space="preserve"><g><path fill="#000000" d="M125.3359,62.6684c0-11.1694-2.951-21.6568-8.0936-30.7482c2.895-2.74,4.7133-6.6066,4.7133-10.8981   c0-8.2839-6.7389-15.0228-15.0228-15.0228c-3.9655,0-7.5667,1.5555-10.2542,4.0744C86.8748,3.7119,75.2,0,62.6676,0   C50.1131,0,38.4187,3.7247,28.6042,10.1075c-2.6914-2.539-6.3076-4.1082-10.2912-4.1082c-8.2839,0-15.0228,6.7389-15.0228,15.0228   c0,4.32,1.8435,8.2088,4.7724,10.952C2.939,41.053,0,51.5211,0,62.6684C0,73.876,2.9717,84.3963,8.1469,93.509   c-2.9775,2.7468-4.8566,6.6673-4.8566,11.0283c0,8.2839,6.7389,15.0228,15.0228,15.0228c4.0531,0,7.7298-1.6202,10.4349-4.2384   c9.7849,6.3257,21.426,10.0151,33.9196,10.0151c12.4713,0,24.0931-3.6765,33.8674-9.9817   c2.7016,2.5977,6.3627,4.2051,10.3979,4.2051c8.2839,0,15.0228-6.7389,15.0228-15.0228c0-4.3325-1.8541-8.2305-4.7975-10.9749   C122.3524,84.4377,125.3359,73.8977,125.3359,62.6684z M118.663,104.5373c0,6.468-5.2622,11.7301-11.7301,11.7301   c-2.9024,0-5.5568-1.0655-7.6071-2.8184c-0.841-0.7191-1.58-1.5523-2.1908-2.4791c-0.8919,0.6383-1.8013,1.252-2.7287,1.8413   c-9.1879,5.8365-20.0709,9.2329-31.7387,9.2329c-11.695,0-22.6013-3.4124-31.8028-9.2743   c-0.9269-0.5904-1.8356-1.205-2.7267-1.8445c-0.6065,0.9297-1.3411,1.7657-2.1787,2.4884   c-2.0557,1.7733-4.7248,2.8538-7.6462,2.8538c-6.468,0-11.7301-5.2622-11.7301-11.7301c0-3.1632,1.2641-6.0327,3.3067-8.1444   c0.7673-0.793,1.6447-1.4759,2.6082-2.0286c-0.5864-0.9253-1.1507-1.8646-1.6865-2.8232   c-4.781-8.5532-7.5186-18.397-7.5186-28.8727c0-10.4077,2.7-20.1933,7.4238-28.7079c0.5326-0.9602,1.0953-1.9008,1.6785-2.8276   c-0.9584-0.5631-1.829-1.2561-2.5891-2.0583c-1.9918-2.1033-3.2229-4.9342-3.2229-8.0524c0-6.468,5.2622-11.7301,11.7301-11.7301   c2.855,0,5.4728,1.0274,7.509,2.7292c0.8501,0.7102,1.6001,1.5366,2.2215,2.4574c0.8899-0.6411,1.7981-1.2569,2.7239-1.8493   c9.2216-5.8996,20.1638-9.3366,31.9001-9.3366c11.7108,0,22.6308,3.4217,31.84,9.2976c0.9261,0.5912,1.8346,1.2062,2.7251,1.8461   c0.6254-0.9184,1.3768-1.744,2.2306-2.451c2.0304-1.6813,4.6339-2.6934,7.4696-2.6934c6.468,0,11.7301,5.2622,11.7301,11.7301   c0,3.0901-1.2102,5.8972-3.1703,7.9945c-0.7554,0.8079-1.6218,1.5073-2.577,2.0768c0.584,0.9265,1.1471,1.867,1.6805,2.8264   c4.7378,8.5243,7.4471,18.3239,7.4471,28.7485c0,10.4922-2.7466,20.3505-7.5419,28.9133   c-0.5366,0.9578-1.1013,1.8971-1.6885,2.8216c0.9602,0.5595,1.8334,1.2484,2.5961,2.0475   C117.4194,98.5573,118.663,101.4022,118.663,104.5373z"/><path fill="#000000" d="M110.5003,89.9603c4.6128-8.0524,7.2648-17.3653,7.2648-27.2919c0-9.8466-2.609-19.09-7.1533-27.0982   c-0.5752-1.0137-1.1803-2.0077-1.8167-2.9804c-3.5718-5.4587-8.0761-10.2534-13.2989-14.1409   c-0.9335-0.6949-1.8963-1.3513-2.8738-1.9872c-8.63-5.6139-18.9141-8.89-29.9547-8.89c-11.0714,0-21.3822,3.2939-30.0271,8.9367   c-0.9783,0.6387-1.9428,1.2966-2.8769,1.9944c-5.1952,3.8803-9.675,8.6617-13.231,14.0995   c-0.6377,0.9751-1.2442,1.9715-1.8204,2.9884c-4.5369,8.003-7.1414,17.2391-7.1414,27.0777c0,9.9182,2.6476,19.2238,7.2529,27.2718   c0.5832,1.0189,1.1938,2.0197,1.8389,2.9968c3.5451,5.3703,7.9967,10.091,13.1465,13.9295   c0.9371,0.6982,1.904,1.3573,2.8853,1.9964c8.6338,5.6215,18.9246,8.9021,29.973,8.9021c11.0159,0,21.2781-3.2621,29.8965-8.8527   c0.9811-0.6367,1.9468-1.2942,2.8837-1.99c5.1787-3.8461,9.6555-8.5809,13.2171-13.9729   C109.3087,91.9752,109.918,90.9768,110.5003,89.9603z M104.5954,93.0423c-2.6516,3.65-5.762,6.9443-9.2544,9.7904   c-1.0933,0.8911-2.2243,1.7372-3.3887,2.5382c-8.3366,5.7348-18.4232,9.1015-29.2847,9.1015   c-10.8993,0-21.0175-3.3915-29.3709-9.1634c-1.1692-0.8079-2.3069-1.6576-3.404-2.5563c-3.4438-2.8212-6.512-6.0801-9.134-9.6851   c-0.8372-1.1507-1.6377-2.3304-2.3797-3.5499c-4.7674-7.8345-7.5154-17.0268-7.5154-26.8494   c0-9.7305,2.7012-18.8404,7.3866-26.6267c0.7253-1.2054,1.5055-2.3734,2.3236-3.5129c2.6719-3.7211,5.8162-7.0797,9.3577-9.9749   c1.0818-0.8847,2.2026-1.7223,3.3544-2.5185c8.3557-5.7766,18.4776-9.171,29.3818-9.171c10.8664,0,20.9568,3.3698,29.2956,9.1091   c1.1471,0.7898,2.2611,1.623,3.3391,2.5c3.5873,2.9181,6.7712,6.3084,9.471,10.0709c0.8131,1.1331,1.5887,2.2943,2.3099,3.4928   c4.687,7.7875,7.3892,16.8986,7.3892,26.6311c0,9.8217-2.7474,19.0132-7.514,26.8474   C106.2214,90.7272,105.4262,91.8984,104.5954,93.0423z"/><path fill="#000000" d="M91.4342,39.1908c-5.4326,3.0342-14.1594,7.0343-20.5788,11.3535   c4.8277-8.2051,10.4682-19.2335,8.3237-22.8489c-3.5614-6.0037-17.5015-7.3265-23.912-7.2248   c-6.4103,0.1017-22.3855,2.1371-16.0767,13.4315c3.0342,5.4326,7.0341,14.1594,11.3535,20.5788   c-8.2053-4.8277-19.2339-10.4684-22.8493-8.3237c-6.0033,3.5616-7.3261,17.5015-7.2244,23.912   c0.1017,6.4101,2.1369,22.3855,13.4313,16.0771c5.4328-3.0346,14.1596-7.0347,20.579-11.3539   c-4.8277,8.2055-10.4682,19.2339-8.3237,22.8493c3.5614,6.0033,17.5015,7.3261,23.912,7.2244   c6.4103-0.1017,22.3853-2.1371,16.0767-13.4311c-3.0342-5.4326-7.0341-14.1598-11.3535-20.5792   c8.2051,4.8277,19.2339,10.4684,22.8491,8.3237c6.0035-3.5612,7.3263-17.5011,7.2246-23.912   C104.764,48.8574,102.7288,32.8824,91.4342,39.1908z M68.9788,64.2174c-0.2132,0.8714-0.6007,1.6721-1.1256,2.3662   c-1.1875,1.5696-3.065,2.5889-5.1852,2.5889c-0.5348,0-1.0517-0.0715-1.5489-0.1929c-0.8714-0.2134-1.6721-0.6013-2.366-1.1258   c-1.5702-1.1873-2.5893-3.0652-2.5893-5.1854c0-0.5346,0.0715-1.0515,0.1933-1.5487c0.213-0.8714,0.6007-1.6725,1.1256-2.3662   c1.1875-1.57,3.065-2.5893,5.1852-2.5893c0.5348,0,1.0515,0.0715,1.5489,0.1933c0.8714,0.2134,1.6721,0.6009,2.366,1.1254   c1.5702,1.1877,2.5893,3.0652,2.5893,5.1854C69.1721,63.2029,69.1006,63.7202,68.9788,64.2174z"/><circle fill="#000000" cx="108.3694" cy="105.6824" r="4.9213"/><circle fill="#000000" cx="17.2037" cy="105.6824" r="4.9213"/><circle fill="#000000" cx="108.3694" cy="19.6615" r="4.9213"/><circle fill="#000000" cx="17.2037" cy="19.6615" r="4.9213"/><circle fill="#000000" cx="62.668" cy="62.6684" r="3.238"/></g><text x="0" y="140.3367" fill="#000000" font-size="5px" font-weight="bold" font-family="'Helvetica Neue', Helvetica, Arial-Unicode, Arial, Sans-serif"></text><text x="0" y="145.3367" fill="#000000" font-size="5px" font-weight="bold" font-family="'Helvetica Neue', Helvetica, Arial-Unicode, Arial, Sans-serif"></text></svg>