<svg xmlns="http://www.w3.org/2000/svg" xmlns:xlink="http://www.w3.org/1999/xlink" version="1.1" x="0px" y="0px" viewBox="0 0 100 125" enable-background="new 0 0 100 100" xml:space="preserve"><g enable-background="new    "><g><g><path fill-rule="evenodd" clip-rule="evenodd" d="M78,6H22c-2.761,0-5,2.238-5,5v79c0,2.762,2.239,5,5,5h56c2.762,0,5-2.238,5-5     V11C83,8.238,80.762,6,78,6z M28.5,89c-3.038,0-5.5-2.463-5.5-5.5s2.462-5.5,5.5-5.5s5.5,2.463,5.5,5.5S31.538,89,28.5,89z      M70,68c3,3,0,6,0,6l-4,3c-3,2-5-1-5-1l-9.281-12.065C51.15,63.973,50.578,64,50,64c-13.807,0-25-11.193-25-25s11.193-25,25-25     c13.807,0,25,11.193,25,25c0,9.031-4.79,16.942-11.967,21.336L70,68z"/></g></g></g><g enable-background="new    "><g><g><path d="M68,69c-1-1-17-17-17-17s-2-1-3,0s0,3,0,3l14,19c0,0,2,2,4,1s3-3,3-3S69,70,68,69z"/></g></g></g><g enable-background="new    "><g><g><circle cx="50.5" cy="39.5" r="7.5"/></g></g></g><text x="0" y="115" fill="#000000" font-size="5px" font-weight="bold" font-family="'Helvetica Neue', Helvetica, Arial-Unicode, Arial, Sans-serif"></text><text x="0" y="120" fill="#000000" font-size="5px" font-weight="bold" font-family="'Helvetica Neue', Helvetica, Arial-Unicode, Arial, Sans-serif"></text></svg>