<svg xmlns="http://www.w3.org/2000/svg" xmlns:xlink="http://www.w3.org/1999/xlink" version="1.1" x="0px" y="0px" viewBox="0 0 127.481 159.35125" enable-background="new 0 0 127.481 127.481" xml:space="preserve"><g><g><g><path fill="#000000" d="M58.028,96.634c-0.259,0-0.521-0.041-0.778-0.125c-1.138-0.373-1.852-1.5-1.702-2.688l3.069-24.407     h-9.048c-0.872,0-1.681-0.455-2.135-1.199c-0.454-0.745-0.487-1.672-0.087-2.447l17.322-33.567     c0.547-1.061,1.768-1.588,2.917-1.255c1.147,0.332,1.899,1.429,1.795,2.619l-1.954,22.361h10.487     c0.886,0,1.706,0.469,2.155,1.233s0.46,1.708,0.029,2.483L60.212,95.35C59.761,96.16,58.915,96.634,58.028,96.634z      M53.671,64.415h7.779c0.717,0,1.4,0.308,1.875,0.846s0.695,1.254,0.605,1.966l-1.814,14.427L73.66,60.927h-8.961     c-0.701,0-1.37-0.294-1.843-0.811c-0.473-0.517-0.708-1.208-0.647-1.907l1.087-12.444L53.671,64.415z"/></g><g><g><path fill="#000000" d="M15.207,59.217c-0.118,0-0.236-0.008-0.356-0.025c-1.367-0.195-2.316-1.462-2.122-2.829      c3.599-25.199,25.537-44.202,51.031-44.202c1.381,0,2.5,1.119,2.5,2.5s-1.119,2.5-2.5,2.5      c-23.021,0-42.832,17.157-46.081,39.909C17.501,58.317,16.431,59.217,15.207,59.217z"/></g><g><path fill="#000000" d="M53.852,29.811c-0.543,0-1.089-0.176-1.548-0.538c-1.083-0.856-1.269-2.428-0.413-3.511l8.841-11.195      L50.912,4.221c-0.951-1.001-0.91-2.583,0.092-3.534c1-0.951,2.583-0.91,3.534,0.092l12.804,13.487L55.815,28.86      C55.322,29.485,54.59,29.811,53.852,29.811z"/></g><g><path fill="#000000" d="M56.72,114.778c-0.118,0-0.236-0.008-0.356-0.025c-25.199-3.598-44.202-25.536-44.202-51.031      c0-1.381,1.119-2.5,2.5-2.5s2.5,1.119,2.5,2.5c0,23.022,17.157,42.833,39.909,46.081c1.367,0.195,2.316,1.461,2.122,2.829      C59.014,113.877,57.944,114.778,56.72,114.778z"/></g><g><path fill="#000000" d="M2.5,77.257c-0.662,0-1.322-0.261-1.813-0.779c-0.951-1.001-0.91-2.584,0.092-3.534l13.487-12.803      L28.86,71.666c1.083,0.855,1.269,2.428,0.413,3.511c-0.856,1.085-2.428,1.267-3.511,0.413l-11.195-8.84L4.221,76.57      C3.738,77.029,3.118,77.257,2.5,77.257z"/></g><g><path fill="#000000" d="M63.723,115.32c-1.381,0-2.5-1.119-2.5-2.5s1.119-2.5,2.5-2.5c23.021,0,42.832-17.157,46.08-39.909      c0.195-1.367,1.458-2.321,2.829-2.122c1.367,0.195,2.316,1.461,2.122,2.829C111.155,96.317,89.217,115.32,63.723,115.32z"/></g><g><path fill="#000000" d="M74.758,127.481c-0.662,0-1.322-0.261-1.813-0.779l-12.804-13.487l11.525-14.594      c0.855-1.085,2.428-1.267,3.511-0.413c1.083,0.855,1.269,2.428,0.413,3.511l-8.84,11.195l9.821,10.345      c0.951,1.001,0.91,2.583-0.092,3.534C75.996,127.253,75.376,127.481,74.758,127.481z"/></g><g><path fill="#000000" d="M112.82,66.26c-1.381,0-2.5-1.119-2.5-2.5c0-23.022-17.157-42.833-39.908-46.081      c-1.367-0.195-2.316-1.461-2.122-2.829c0.195-1.367,1.458-2.32,2.829-2.122c25.199,3.598,44.201,25.536,44.201,51.031      C115.32,65.141,114.201,66.26,112.82,66.26z"/></g><g><path fill="#000000" d="M113.216,67.34L98.622,55.815c-1.083-0.855-1.269-2.428-0.413-3.511      c0.856-1.085,2.429-1.267,3.511-0.413l11.195,8.84l10.345-9.82c1.001-0.95,2.585-0.909,3.534,0.092      c0.951,1.001,0.91,2.584-0.092,3.534L113.216,67.34z"/></g></g></g></g><text x="0" y="142.481" fill="#000000" font-size="5px" font-weight="bold" font-family="'Helvetica Neue', Helvetica, Arial-Unicode, Arial, Sans-serif"></text><text x="0" y="147.481" fill="#000000" font-size="5px" font-weight="bold" font-family="'Helvetica Neue', Helvetica, Arial-Unicode, Arial, Sans-serif"></text></svg>