<svg xmlns="http://www.w3.org/2000/svg" xmlns:xlink="http://www.w3.org/1999/xlink" version="1.1" x="0px" y="0px" viewBox="0 0 48 60" enable-background="new 0 0 48 48" xml:space="preserve"><g><path fill="#000000" d="M29.3,47.4l17.9-3.8c0.2,0,0.3-0.2,0.3-0.4V8.3c0-0.2-0.1-0.3-0.3-0.4L29.4,0.7c-0.3-0.1-0.5,0.1-0.5,0.4   V47C28.8,47.3,29.1,47.5,29.3,47.4z"/><circle fill="#000000" cx="13.4" cy="27.8" r="1.6"/><path fill="#000000" d="M0.5,0.9v46.2c0,0.2,0.2,0.4,0.4,0.4h25.2c0.2,0,0.4-0.2,0.4-0.4V0.9c0-0.2-0.2-0.4-0.4-0.4H0.9   C0.7,0.5,0.5,0.7,0.5,0.9z M14.2,32.1c-2.9,0.4-5.3-2-4.9-4.9c0.3-1.8,1.7-3.3,3.5-3.5c2.9-0.4,5.3,2,4.9,4.9   C17.4,30.3,16,31.8,14.2,32.1z M22.9,18.4H4.1c-0.2,0-0.4-0.2-0.4-0.4v-4.7c0-0.2,0.2-0.4,0.4-0.4h18.8c0.2,0,0.4,0.2,0.4,0.4V18   C23.3,18.2,23.1,18.4,22.9,18.4z M22.9,9.5H4.1c-0.2,0-0.4-0.2-0.4-0.4V4.4C3.7,4.1,3.9,4,4.1,4h18.8c0.2,0,0.4,0.2,0.4,0.4v4.7   C23.3,9.3,23.1,9.5,22.9,9.5z"/></g><text x="0" y="63" fill="#000000" font-size="5px" font-weight="bold" font-family="'Helvetica Neue', Helvetica, Arial-Unicode, Arial, Sans-serif"></text><text x="0" y="68" fill="#000000" font-size="5px" font-weight="bold" font-family="'Helvetica Neue', Helvetica, Arial-Unicode, Arial, Sans-serif"></text></svg>