<svg xmlns="http://www.w3.org/2000/svg" xmlns:xlink="http://www.w3.org/1999/xlink" version="1.1" x="0px" y="0px" viewBox="0 0 100 125" enable-background="new 0 0 100 100" xml:space="preserve"><g><g><path fill="#000000" d="M89.032,31.241H72.144l-2.886-18.15h-2.086l-0.681-4.766H33.155l-0.542,4.766h-2.39l-2.529,18.15H10.97    c-3.192,0-5.789,2.596-5.789,5.787v33.827c0,3.189,2.597,5.787,5.789,5.787h9.367h1.077V57.65h55.574v18.992h2.158h9.886    c3.19,0,5.786-2.598,5.786-5.787V37.028C94.818,33.837,92.223,31.241,89.032,31.241z M12.823,43.188    c-1.31,0-2.376-0.992-2.376-2.219c0-1.225,1.066-2.215,2.376-2.215c1.313,0,2.376,0.99,2.376,2.215    C15.199,42.195,14.136,43.188,12.823,43.188z M31.469,31.241l2.505-22h31.724l3.135,22H31.469z"/><path fill="#000000" d="M72.006,71.375h-3.358l-0.98-3.059H30.776l-0.981,3.059h-3.362l-7.136,20.299h59.849L72.006,71.375z     M31.444,69.232h35.555l5.379,16.781H26.062L31.444,69.232z"/></g><g><polygon fill="#000000" points="65.616,74.238 65.394,73.322 32.877,73.322 32.654,74.238   "/></g><g><polygon fill="#000000" points="66.274,76.91 66.052,75.994 32.318,75.994 32.095,76.91   "/></g><g><polygon fill="#000000" points="67.159,79.963 66.937,79.047 31.503,79.047 31.28,79.963   "/></g></g><text x="0" y="115" fill="#000000" font-size="5px" font-weight="bold" font-family="'Helvetica Neue', Helvetica, Arial-Unicode, Arial, Sans-serif"></text><text x="0" y="120" fill="#000000" font-size="5px" font-weight="bold" font-family="'Helvetica Neue', Helvetica, Arial-Unicode, Arial, Sans-serif"></text></svg>