<svg xmlns="http://www.w3.org/2000/svg" xmlns:xlink="http://www.w3.org/1999/xlink" version="1.1" x="0px" y="0px" viewBox="0 0 24 30" enable-background="new 0 0 24 24" xml:space="preserve"><g><path d="M17.3,16c1.7-1.5,2.7-3.6,2.7-6c0-4.4-3.6-8-8-8c-4.4,0-8,3.6-8,8c0,2.4,1,4.5,2.7,6H2v6h20v-6H17.3z M17.5,7.7   C17.8,8.4,18,9.2,18,10h-2c0-0.6-0.1-1.1-0.3-1.6L17.5,7.7z M12,8c1.1,0,2,0.9,2,2s-0.9,2-2,2s-2-0.9-2-2S10.9,8,12,8z M6.4,12.2   C6.2,11.6,6,10.8,6,10h2c0,0.5,0.1,1,0.3,1.5L6.4,12.2z M13,20H4v-2h9V20z M20,20h-3v-2h3V20z"/></g><text x="0" y="39" fill="#000000" font-size="5px" font-weight="bold" font-family="'Helvetica Neue', Helvetica, Arial-Unicode, Arial, Sans-serif">Created by Creative Stall</text><text x="0" y="44" fill="#000000" font-size="5px" font-weight="bold" font-family="'Helvetica Neue', Helvetica, Arial-Unicode, Arial, Sans-serif">from the Noun Project</text></svg>