<svg xmlns="http://www.w3.org/2000/svg" xmlns:xlink="http://www.w3.org/1999/xlink" version="1.1" x="0px" y="0px" viewBox="0 0 100 125" style="enable-background:new 0 0 100 100;" xml:space="preserve"><rect x="83" y="5" width="2.1" height="11.8"/><path d="M14.4,16.2V95h69.1V5H25.7L14.4,16.2z M24.8,29.6h-6.5v-16h6.5V29.6z M71.5,6.2h9.1v16h-9.1V6.2z M63.8,6.2h6.5v16h-6.5V6.2  z M56.2,6.2h6.5v16h-6.5V6.2z M48.6,6.2h6.5v16h-6.5V6.2z M41,6.2h6.5v16H41V6.2z M33.4,6.2h6.5v16h-6.5V6.2z M25.8,6.2h6.5v16h-6.5  V6.2z"/><polygon points="14.4,95 16.4,95 16.4,14.3 14.4,16.2 "/><rect x="83" y="36.7" width="2.1" height="58.3"/><polygon points="83.4,17.3 82.5,17.3 82.5,18.8 82.5,26.6 82.5,28.1 83.4,28.1 84.9,26.6 84.9,26.6 84.9,26.6 84.9,18.8 84.9,18.8   84.9,18.8 "/><text x="0" y="115" fill="#000000" font-size="5px" font-weight="bold" font-family="'Helvetica Neue', Helvetica, Arial-Unicode, Arial, Sans-serif"></text><text x="0" y="120" fill="#000000" font-size="5px" font-weight="bold" font-family="'Helvetica Neue', Helvetica, Arial-Unicode, Arial, Sans-serif"></text></svg>