<svg xmlns:dc="http://purl.org/dc/elements/1.1/" xmlns:cc="http://creativecommons.org/ns#" xmlns:rdf="http://www.w3.org/1999/02/22-rdf-syntax-ns#" xmlns:svg="http://www.w3.org/2000/svg" xmlns="http://www.w3.org/2000/svg" xmlns:xlink="http://www.w3.org/1999/xlink" xmlns:sodipodi="http://sodipodi.sourceforge.net/DTD/sodipodi-0.dtd" xmlns:inkscape="http://www.inkscape.org/namespaces/inkscape" viewBox="0 0 99.999997 124.9999975" version="1.1" x="0px" y="0px"><g transform="translate(0,-952.36222)"><rect style="" id="a" width="10.797414" height="4.6264367" x="23.176779" y="1475.861" ry="2.3132184" fill="#ffffff" fill-opacity="1" stroke="none"/><use x="0" y="0" xlink:href="#a" transform="translate(-2e-7,-943.34068)" width="100%" height="100%"/><use x="0" y="0" xlink:href="#a" transform="translate(-2e-7,-934.31908)" width="100%" height="100%"/><use x="0" y="0" xlink:href="#a" transform="translate(-2e-7,-925.29758)" width="100%" height="100%"/><use x="0" y="0" xlink:href="#a" transform="translate(-2e-7,-916.27598)" width="100%" height="100%"/><use x="0" y="0" xlink:href="#a" transform="translate(-2e-7,-907.25448)" width="100%" height="100%"/><path style="" d="M 5 5 L 5 25 L 15 25 L 15 35 L 5 35 L 5 40 L 15 40 L 15 50 L 5 50 L 5 95 L 15 95 L 20 95 L 95 95 L 95 5 L 15 5 L 5 5 z M 35 6 L 37 6 L 37 21 L 35 21 L 35 6 z M 38 6 L 40 6 L 40 21 L 38 21 L 38 6 z M 41 6 L 43 6 L 43 21 L 41 21 L 41 6 z M 44 6 L 46 6 L 46 21 L 44 21 L 44 6 z M 47 6 L 49 6 L 49 21 L 47 21 L 47 6 z M 50 6 L 52 6 L 52 21 L 50 21 L 50 6 z M 53 6 L 55 6 L 55 21 L 53 21 L 53 6 z M 56 6 L 58 6 L 58 21 L 56 21 L 56 6 z M 59 6 L 61 6 L 61 21 L 59 21 L 59 6 z M 62 6 L 64 6 L 64 21 L 62 21 L 62 6 z M 73 15 L 77 15 L 77 60 L 73 60 L 73 15 z M 79 15 L 83 15 L 83 60 L 79 60 L 79 15 z M 85 15 L 89 15 L 89 60 L 85 60 L 85 15 z M 5.5253906 17 L 13.525391 17 L 13.525391 24 L 5.5253906 24 L 5.5253906 17 z M 43.126953 22.556641 L 63.126953 22.556641 L 68.126953 27.556641 L 68.126953 47.556641 L 63.126953 52.556641 L 43.126953 52.556641 L 38.126953 47.556641 L 38.126953 27.556641 L 43.126953 22.556641 z M 20 24 L 35 24 L 35 26 L 20 26 L 20 24 z M 20 27 L 35 27 L 35 29 L 20 29 L 20 27 z M 20 30 L 35 30 L 35 32 L 20 32 L 20 30 z M 20 33 L 35 33 L 35 35 L 20 35 L 20 33 z M 20 36 L 35 36 L 35 38 L 20 38 L 20 36 z M 20 39 L 35 39 L 35 41 L 20 41 L 20 39 z M 20 42 L 35 42 L 35 44 L 20 44 L 20 42 z M 20 45 L 35 45 L 35 47 L 20 47 L 20 45 z M 20 48 L 35 48 L 35 50 L 20 50 L 20 48 z M 5.5253906 51 L 13.525391 51 L 13.525391 63 L 5.5253906 63 L 5.5253906 51 z M 20 51 L 35 51 L 35 53 L 20 53 L 20 51 z M 43.5 55 A 3.5 3.5 0 0 1 47 58.5 A 3.5 3.5 0 0 1 43.5 62 A 3.5 3.5 0 0 1 40 58.5 A 3.5 3.5 0 0 1 43.5 55 z M 53.5 55 A 3.5 3.5 0 0 1 57 58.5 A 3.5 3.5 0 0 1 53.5 62 A 3.5 3.5 0 0 1 50 58.5 A 3.5 3.5 0 0 1 53.5 55 z M 63.5 55 A 3.5 3.5 0 0 1 67 58.5 A 3.5 3.5 0 0 1 63.5 62 A 3.5 3.5 0 0 1 60 58.5 A 3.5 3.5 0 0 1 63.5 55 z M 42 64 L 45 64 L 45 66 L 42 66 L 42 64 z M 52 64 L 55 64 L 55 66 L 52 66 L 52 64 z M 62 64 L 65 64 L 65 66 L 62 66 L 62 64 z M 10 68 L 17 68 L 17 75 L 10 75 L 10 68 z M 25 69 L 70 69 L 70 73 L 25 73 L 25 69 z M 75 70 L 77 70 L 77 85 L 75 85 L 75 70 z M 78 70 L 80 70 L 80 85 L 78 85 L 78 70 z M 81 70 L 83 70 L 83 85 L 81 85 L 81 70 z M 84 70 L 86 70 L 86 85 L 84 85 L 84 70 z M 87 70 L 89 70 L 89 85 L 87 85 L 87 70 z M 25 75 L 70 75 L 70 79 L 25 79 L 25 75 z M 10 77.894531 L 17 77.894531 L 17 80.894531 L 10 80.894531 L 10 77.894531 z M 25 81 L 70 81 L 70 85 L 25 85 L 25 81 z M 25 87 L 55 87 L 55 91 L 25 91 L 25 87 z M 60 87 L 70 87 L 70 91 L 60 91 L 60 87 z " transform="translate(0,952.36222)" fill="#000000" fill-opacity="1" stroke="none"/><rect style="" width="24" height="22.999977" x="41" y="978.36224" fill="#000000" fill-opacity="1" stroke="none"/></g><text x="0" y="114.999998" fill="#000000" font-size="5px" font-weight="bold" font-family="'Helvetica Neue', Helvetica, Arial-Unicode, Arial, Sans-serif">C</text><text x="0" y="119.999998" fill="#000000" font-size="5px" font-weight="bold" font-family="'Helvetica Neue', Helvetica, Arial-Unicode, Arial, Sans-serif"></text></svg>