<svg xmlns="http://www.w3.org/2000/svg" xmlns:xlink="http://www.w3.org/1999/xlink" version="1.1" x="0px" y="0px" viewBox="0 0 100 125" enable-background="new 0 0 100 100" xml:space="preserve"><g><path d="M74.607,52.352c-0.546-2.248-0.494-5.133-0.336-9.611c0.023-0.057,0.05-0.121,0.073-0.177   c0.132-3.597,0.317-8.248,0.317-14.505c0-15-4.027-20-4.027-20c-5-7-15.055-6-15.055-6l-1.931,4.97L50,8l-4.237-0.961l-2.029-4.99   c0,0-10.104-0.995-15.104,6.005c0,0-4.052,5.002-4.052,20.002c0,6.257,0.173,10.909,0.305,14.506   c0.023,0.056,0.044,0.121,0.067,0.178c0.158,4.478,0.207,7.364-0.339,9.611c-0.887,3.648-5.697,5.686-3.995,13.986   c0.046,0.068,0.095,0.141,0.142,0.211c0.2,0.785,0.441,1.609,0.77,2.51c4,11,11.235,21,16.236,24c5,3,12.236,2.976,12.236,2.976   s6.844,0.013,11.844-2.987s11.943-12.994,15.943-23.994c0.328-0.9,0.52-1.722,0.72-2.507c0.047-0.07,0.072-0.142,0.118-0.21   C80.327,58.035,75.494,56,74.607,52.352z M30.644,74.705c-1.813-1.279-5.413-5.049-8.142-9.139   c-0.844-4.574,0.568-6.652,2.061-8.846c0.798-1.174,1.622-2.385,1.989-3.896c0.049-0.199,0.093-0.402,0.133-0.607   c1.608,4.428,2.64,7.809,2.949,9.719C30.948,70.051,30.862,73.375,30.644,74.705z M63.939,63.059   c-2.633,11.406-4.11,18.971-7.11,20.971S49.609,86,49.609,86h-0.002c0,0-4.22,0.029-7.22-1.971s-4.478-9.579-7.111-20.985   c-3-13-7.055-26.993-7.055-26.993s3.973-1.996,3.973-4.996s-1.014-7.998-0.014-10.998s0.993-4,0.993-6   c0-1.049-1.654-2.921-3.225-4.467c4.692-6.464,12.22-5.532,12.22-5.532l2.415,5L49,9.868v2.256c-1.722,0.39-3,1.747-3,3.376v10   c0,1.629,1.278,2.986,3,3.376V32h-1l-1,9h2v1h-2l1,9h1v8h2v-8h1l1-9h-2v-1h2l-1-9h-1v-3.124c1.722-0.39,3-1.747,3-3.376v-10   c0-1.629-1.278-2.986-3-3.376V9.868l4.023-0.809l2.123-5c0,0,7.477-0.931,12.169,5.533c-1.57,1.546-3.249,3.418-3.249,4.467   c0,2-0.019,3,0.981,6s-0.021,8-0.021,11s3.97,5,3.97,5S66.939,50.059,63.939,63.059z M76.714,65.566   c-2.729,4.09-6.328,7.859-8.142,9.139c-0.219-1.33-0.305-4.654,1.01-12.77c0.31-1.91,1.341-5.291,2.949-9.719   c0.04,0.205,0.084,0.408,0.133,0.607c0.367,1.512,1.191,2.723,1.989,3.896C76.146,58.914,77.558,60.992,76.714,65.566z"/></g><text x="0" y="115" fill="#000000" font-size="5px" font-weight="bold" font-family="'Helvetica Neue', Helvetica, Arial-Unicode, Arial, Sans-serif"></text><text x="0" y="120" fill="#000000" font-size="5px" font-weight="bold" font-family="'Helvetica Neue', Helvetica, Arial-Unicode, Arial, Sans-serif"></text></svg>