<?xml version="1.0" encoding="iso-8859-1"?>
<!-- Generator: Adobe Illustrator 19.0.0, SVG Export Plug-In . SVG Version: 6.00 Build 0)  -->
<svg version="1.1" id="Layer_1" xmlns="http://www.w3.org/2000/svg" xmlns:xlink="http://www.w3.org/1999/xlink" x="0px" y="0px"
	 viewBox="0 0 512 512" style="enable-background:new 0 0 512 512;" xml:space="preserve">
<path style="fill:#5B5D6E;" d="M264.828,512h-17.655c-4.875,0-8.828-3.953-8.828-8.828v-61.793h35.31v61.793
	C273.655,508.047,269.703,512,264.828,512z"/>
<path style="fill:#707487;" d="M274.421,459.034h-36.843c-4.566,0-8.378-3.481-8.791-8.029l-8.097-89.075h70.621l-8.098,89.075
	C282.799,455.553,278.987,459.034,274.421,459.034z"/>
<path style="fill:#E4EAF6;" d="M334.345,167.724h-156.69c-0.609,0-1.103-0.494-1.103-1.103V8.828c0-4.875,3.953-8.828,8.828-8.828
	h141.241c4.875,0,8.828,3.953,8.828,8.828v157.793C335.448,167.23,334.954,167.724,334.345,167.724z"/>
<path style="fill:#C7CFE2;" d="M177.655,167.724H256V0h-70.621c-4.875,0-8.828,3.953-8.828,8.828v157.793
	C176.552,167.23,177.046,167.724,177.655,167.724z"/>
<g>
	<path style="fill:#82889D;" d="M335.448,150.069H176.552c-9.751,0-17.655,7.904-17.655,17.655v194.207
		c0,9.751,7.904,17.655,17.655,17.655h158.897c9.751,0,17.655-7.904,17.655-17.655V167.724
		C353.103,157.973,345.199,150.069,335.448,150.069z"/>
	<path style="fill:#82889D;" d="M203.034,97.103h17.655c4.875,0,8.828,3.953,8.828,8.828v8.828c0,4.875-3.953,8.828-8.828,8.828
		h-17.655c-4.875,0-8.828-3.953-8.828-8.828v-8.828C194.207,101.056,198.159,97.103,203.034,97.103z"/>
	<path style="fill:#82889D;" d="M291.31,97.103h17.655c4.875,0,8.828,3.953,8.828,8.828v8.828c0,4.875-3.953,8.828-8.828,8.828
		H291.31c-4.875,0-8.828-3.953-8.828-8.828v-8.828C282.483,101.056,286.435,97.103,291.31,97.103z"/>
</g>
<g>
</g>
<g>
</g>
<g>
</g>
<g>
</g>
<g>
</g>
<g>
</g>
<g>
</g>
<g>
</g>
<g>
</g>
<g>
</g>
<g>
</g>
<g>
</g>
<g>
</g>
<g>
</g>
<g>
</g>
</svg>
