<svg xmlns="http://www.w3.org/2000/svg" xmlns:xlink="http://www.w3.org/1999/xlink" version="1.1" x="0px" y="0px" viewBox="0 0 100 125" enable-background="new 0 0 100 100" xml:space="preserve"><path d="M38.1,54.2c1.6-2.8,1.7-6.1,0.4-9h6.2c-1.3,2.9-1.2,6.3,0.4,9H38.1z"/><path d="M62.3,54.2c1.6-2.8,1.7-6.1,0.4-9h6.4c-0.6,1.3-0.9,2.6-0.9,4.1c0,1.8,0.5,3.4,1.3,4.9H62.3z"/><path d="M90.5,47.2v5.1c0,1.1-0.9,2-1.9,2h-2c0.8-1.5,1.3-3.1,1.3-4.9c0-1.5-0.3-2.8-0.9-4.1h1.5  C89.6,45.3,90.5,46.1,90.5,47.2z"/><path d="M21,54.2h-1.8c-1.1,0-1.9-0.9-1.9-2v-5.1c0-1.1,0.9-2,1.9-2h1.4C19.3,48.1,19.5,51.5,21,54.2z"/><path d="M92.6,35.9H13.9c-1.1,0-2,0.9-2,1.9v23c0,1.1,0.9,1.9,2,1.9h78.7c1.1,0,1.9-0.9,1.9-1.9v-23  C94.5,36.8,93.7,35.9,92.6,35.9z M91.5,52.3c0,1.6-1.3,2.9-2.9,2.9H86c-1.8,2.4-4.7,4-7.9,4c-3.3,0-6.1-1.6-7.9-4h-8.4  c0,0,0,0.1,0,0.1c-3.3,4.4-9.5,5.2-13.9,2c-0.8-0.6-1.4-1.3-2-2h-8.4c-0.2,0.3-0.4,0.6-0.7,0.9c-3.7,4-10,4.2-14,0.4  c-0.4-0.4-0.8-0.9-1.1-1.3h-2.4c-1.6,0-2.9-1.3-2.9-2.9v-5.1c0-1.6,1.3-2.9,2.9-2.9h1.9c0.4-0.6,0.8-1.2,1.3-1.7  c3.7-4,10-4.1,14-0.4c0.7,0.6,1.2,1.4,1.6,2.1h7.3c0.2-0.3,0.3-0.6,0.5-0.9c3.3-4.4,9.5-5.2,13.9-1.9c1.1,0.8,1.9,1.8,2.5,2.8h7.4  c1.7-2.9,4.8-4.8,8.4-4.8c3.6,0,6.7,2,8.4,4.8h2.1c1.6,0,2.9,1.3,2.9,2.9V52.3z"/><path d="M93.8,32h-84v-5.3c0-0.8-0.6-1.5-1.5-1.5h-5c-0.8,0-1.5,0.7-1.5,1.5c0,0.8,0.7,1.5,1.5,1.5h3.5v8.5  c-1.1,0-2,0.9-2,2v7.8c0,1.1,0.9,2,2,2.1V51c-1.1,0-2,0.9-2,2.1v7.8c0,1.1,0.9,2,2,2v10.5c0,0.8,0.7,1.5,1.5,1.5  c0.8,0,1.5-0.7,1.5-1.5v-6.1h2.1v2.7H16v-2.7h2.4v2.7h39.3v-2.7H60v2.7h4.1v-2.7h29.6c2.4,0,4.4-2,4.4-4.4V36.4  C98.2,33.9,96.2,32,93.8,32z M95.5,60.9c0,1.6-1.3,2.9-2.9,2.9H13.9c-1.6,0-2.9-1.3-2.9-2.9v-23c0-1.6,1.3-2.9,2.9-2.9h78.7  c1.6,0,2.9,1.3,2.9,2.9V60.9z"/><path d="M79.9,49.5c0,0.9-0.7,1.7-1.7,1.7s-1.7-0.7-1.7-1.7c0-0.9,0.8-1.7,1.7-1.7S79.9,48.5,79.9,49.5z"/><path d="M81.3,46.9c1-2,2.8-3.9,1.8-4.4c-1.3-0.6-5.2,1.3-6.4,3.5c-1.9-1.4-3.4-3.9-4.1-3c-0.9,1.1-0.1,5.1,1.8,6.9  c-1.9,1.3-4.6,1.9-3.9,2.8c0.8,1.2,4.9,1.7,7.2,0.5c0.7,2.2,0.5,5.1,1.6,4.7c1.3-0.4,3-4.1,2.6-6.6c2.3,0.1,4.8,1.1,4.8,0  C86.6,50,83.8,47.4,81.3,46.9z M78.2,52.1c-1.5,0-2.7-1.2-2.7-2.6c0-1.5,1.2-2.7,2.7-2.7s2.6,1.2,2.6,2.7  C80.9,50.9,79.7,52.1,78.2,52.1z"/><path d="M55.5,49.3c0.1,0.5-0.1,0.9-0.3,1.2c-0.3,0.4-0.6,0.6-1.1,0.7c-0.4,0.1-0.9-0.1-1.2-0.3  c-0.4-0.3-0.6-0.7-0.7-1.1c-0.1-0.5,0.1-0.9,0.3-1.2c0.3-0.4,0.7-0.6,1.1-0.7c0.1,0,0.2,0,0.2,0c0.4,0,0.7,0.1,1,0.4  C55.3,48.5,55.5,48.9,55.5,49.3z"/><path d="M61.9,47c-0.7-1.3-4.9-2.1-7.2-1c-0.7-2.3-0.4-5.2-1.5-4.8c-1.4,0.4-3.1,4-2.7,6.6c-2.3-0.1-4.8-1.2-4.8-0.1  c-0.1,1.4,2.9,4.3,5.4,4.7c-0.8,2.2-2.7,4.3-1.6,4.7c1.3,0.5,4.8-1.5,6-3.7c1.8,1.4,3.2,3.8,3.9,2.8c0.8-1.1,0.1-4.8-1.5-6.7  C59.9,48.3,62.4,47.9,61.9,47z M56,51.2c-0.4,0.6-1,0.9-1.7,1c-0.1,0-0.3,0-0.4,0c-0.6,0-1.1-0.2-1.6-0.5c-0.6-0.4-0.9-1-1-1.7  c-0.1-0.7,0.1-1.4,0.5-2c0.4-0.5,1-0.9,1.7-1c0.7-0.1,1.4,0.1,2,0.5c0.6,0.4,0.9,1,1,1.7C56.6,49.9,56.4,50.6,56,51.2z"/><path d="M33.5,48.1c1.6-1.6,4.1-2.8,3.3-3.5c-1-0.9-4.8-0.7-6.9,0.8c-0.8-2.1-0.9-4.7-1.9-4.3  c-1.3,0.6-2.7,4.6-1.8,7.1c-2.3,0.4-5.2-0.2-5,0.9c0.2,1.4,3.7,3.6,6.3,3.5c-0.4,2.3-1.8,4.6-0.6,4.8c1.4,0.2,4.5-2.4,5.2-4.9  c2.1,1,4,3.1,4.5,2.1C37.2,53.2,35.7,49.5,33.5,48.1z M31.7,51.2c-0.5,0.5-1.2,0.8-1.9,0.8c-0.7,0-1.3-0.2-1.8-0.7  c-1.1-1-1.1-2.7-0.1-3.7c1-1.1,2.7-1.1,3.8-0.1c0.5,0.5,0.8,1.2,0.8,1.9C32.4,50,32.1,50.6,31.7,51.2z"/><path d="M31.4,49.3c0,0.5-0.2,0.9-0.5,1.2c-0.6,0.7-1.7,0.7-2.4,0.1c-0.7-0.6-0.7-1.7-0.1-2.4  c0.3-0.4,0.8-0.5,1.2-0.5c0.4,0,0.8,0.2,1.1,0.5C31.2,48.4,31.4,48.8,31.4,49.3z"/><text x="0" y="115" fill="#000000" font-size="5px" font-weight="bold" font-family="'Helvetica Neue', Helvetica, Arial-Unicode, Arial, Sans-serif"></text><text x="0" y="120" fill="#000000" font-size="5px" font-weight="bold" font-family="'Helvetica Neue', Helvetica, Arial-Unicode, Arial, Sans-serif"></text></svg>