<?xml version="1.0" encoding="iso-8859-1"?>
<!-- Generator: Adobe Illustrator 19.0.0, SVG Export Plug-In . SVG Version: 6.00 Build 0)  -->
<svg version="1.1" id="Layer_1" xmlns="http://www.w3.org/2000/svg" xmlns:xlink="http://www.w3.org/1999/xlink" x="0px" y="0px"
	 viewBox="0 0 361.88 361.88" style="enable-background:new 0 0 361.88 361.88;" xml:space="preserve">
<g>
	<path style="fill:#808285;" d="M323.796,268.23H38.084V75.819c0-11.046,8.954-20,20-20h245.713c11.046,0,20,8.954,20,20V268.23
		H323.796z"/>
	<rect x="65.056" y="82.791" style="fill:#5AC2AD;" width="231.767" height="158.466"/>
	<g>
		<rect x="107.688" y="138.593" style="fill:#FFFFFF;" width="146.504" height="73.515"/>
		<rect x="107.688" y="111.94" style="fill:#80D0E1;" width="146.504" height="26.653"/>
	</g>
	<g>
		<path style="fill:#A7A9AC;" d="M339.177,306.061H22.703c-4.539,0-8.508-3.057-9.668-7.445L5.002,268.23h351.875l-8.032,30.387
			C347.685,303.004,343.716,306.061,339.177,306.061z"/>
		<g>
			<path style="fill:#393654;" d="M296.824,77.791H65.056c-2.762,0-5,2.239-5,5v158.466c0,2.761,2.238,5,5,5h231.768
				c2.762,0,5-2.239,5-5V82.791C301.824,80.03,299.585,77.791,296.824,77.791z M291.824,236.257H70.056V87.791h221.768V236.257z"/>
			<path style="fill:#393654;" d="M107.688,217.108h146.504c2.762,0,5-2.239,5-5c0-12.56,0-89.575,0-100.169c0-2.761-2.238-5-5-5
				H107.688c-2.762,0-5,2.239-5,5c0,10.597,0,87.609,0,100.169C102.688,214.87,104.926,217.108,107.688,217.108z M249.192,207.108
				H112.688v-63.515h136.504V207.108z M112.688,116.94h136.504v16.653H112.688V116.94z"/>
			<path style="fill:#393654;" d="M356.878,263.23h-28.081V75.819c0-13.785-11.215-25-25-25H58.084c-13.785,0-25,11.215-25,25
				V263.23H5.002c-3.278,0-5.672,3.108-4.834,6.278L8.2,299.895c1.738,6.574,7.702,11.166,14.502,11.166h316.475
				c6.8,0,12.764-4.592,14.502-11.167l8.032-30.387C362.549,266.339,360.156,263.23,356.878,263.23z M43.084,75.819
				c0-8.271,6.729-15,15-15h245.713c8.271,0,15,6.729,15,15V263.23H43.084V75.819z M344.011,297.338
				c-0.579,2.192-2.567,3.723-4.834,3.723H22.703c-2.267,0-4.255-1.531-4.834-3.722l-6.373-24.109c5.692,0,326.095,0,338.889,0
				L344.011,297.338z"/>
		</g>
	</g>
</g>
<g>
</g>
<g>
</g>
<g>
</g>
<g>
</g>
<g>
</g>
<g>
</g>
<g>
</g>
<g>
</g>
<g>
</g>
<g>
</g>
<g>
</g>
<g>
</g>
<g>
</g>
<g>
</g>
<g>
</g>
</svg>
